<?xml version="1.0" encoding="UTF-8"?>
<svg width="41px" height="32px" viewBox="0 0 41 32" version="1.1" xmlns="http://www.w3.org/2000/svg" xmlns:xlink="http://www.w3.org/1999/xlink">
    <!-- Generator: Sketch 46.2 (44496) - http://www.bohemiancoding.com/sketch -->
    <title>3dIcon</title>
    <desc>Created with Sketch.</desc>
    <defs></defs>
    <g id="Page-1" stroke="none" stroke-width="1" fill="none" fill-rule="evenodd">
        <g id="5-WebEditor" transform="translate(-1023.000000, -32.000000)" fill="#213062">
            <g id="Header">
                <g id="3D-view" transform="translate(938.000000, 32.000000)">
                    <g id="3dIcon" transform="translate(85.000000, 0.000000)">
                        <path d="M29.6681034,4.18539058 C29.5902955,4.22571637 29.5608312,4.30269479 29.5189256,4.36557301 C28.3691468,6.08935248 27.2220933,7.81494878 26.0714851,9.5381753 C25.9926899,9.65622995 25.9796956,9.77949811 25.9798141,9.91291684 C25.9809595,11.0183412 25.9842377,12.123726 25.9768913,13.2291109 C25.9756275,13.4208262 26.0139389,13.5246622 26.225205,13.5724528 C26.5157008,13.6381352 26.7015707,13.9234175 26.6911831,14.2083048 C26.6809536,14.4882551 26.4854071,14.760701 26.2087745,14.8137051 C26.0094758,14.8518981 25.9772468,14.9515475 25.9777603,15.1261609 C25.9825393,16.6460601 25.9803275,18.1660383 25.9820259,19.6859375 C25.9821049,19.7400871 25.9576961,19.8032418 26.0122011,19.8507954 C26.078239,19.8174604 26.1004755,19.7519755 26.1358642,19.6988529 C26.8688773,18.6004589 27.6044577,17.5037632 28.3311908,16.4012221 C28.6601561,15.902067 28.9689387,15.3835192 29.329738,14.91292 C29.6530947,14.4911778 29.7327984,14.0640246 29.6960668,13.5745066 C29.6921172,13.5221344 29.6924726,13.4693278 29.6924726,13.4167186 C29.6926701,10.4098206 29.6932231,7.40292268 29.6921962,4.39602471 C29.6921567,4.32749851 29.7144326,4.25379829 29.6681034,4.18539058 L29.6681034,4.18539058 Z M24.7508056,8.78837626 C24.9265249,8.86942281 25.0283861,8.73256789 25.1392524,8.56364193 C25.7311844,7.66162388 26.3318847,6.76533281 26.9304521,5.86769887 C27.6457709,4.79485903 28.3605761,3.72166373 29.0794495,2.65115418 C29.1768475,2.50600503 29.144421,2.47247261 28.9796027,2.46014975 C28.1535757,2.39853541 27.3281806,2.32827138 26.5027065,2.25867878 C25.317065,2.15871347 24.1317,2.05471953 22.9459006,1.9561366 C21.9043419,1.86952107 20.8621512,1.7897779 19.820553,1.70375481 C18.6020901,1.60311807 17.379322,1.53502633 16.1678894,1.37941064 C15.6465374,1.3124643 15.3633879,1.46962034 15.1467109,1.90479132 C15.069219,2.06032802 15.0628996,2.09291252 15.2488485,2.10555136 C15.5829087,2.12830127 15.8199264,2.37527205 15.8422814,2.68717487 C15.8671246,3.03292607 15.6971717,3.29119282 15.3848345,3.38250842 C15.0699299,3.47457445 14.742663,3.3458163 14.6089678,3.04145729 C14.5175337,2.83346941 14.4736138,2.92198077 14.3962404,3.03865304 C13.8980727,3.78963698 13.3976142,4.53919904 12.8977087,5.28907708 C12.4122983,6.01715312 11.9283888,6.74621657 11.4396608,7.47200182 C11.3487401,7.60700041 11.3388266,7.67284085 11.5330302,7.68192502 C11.7822523,7.69365544 12.030408,7.72695088 12.2792746,7.74772597 C13.1308952,7.81881943 13.9827134,7.88742462 14.8342946,7.95903153 C16.0066653,8.05761447 17.1787595,8.15975207 18.3512881,8.25715012 C19.2357303,8.33057386 20.1208439,8.3965328 21.0053256,8.47015403 C22.2369408,8.5726471 23.4681611,8.6791688 24.7508056,8.78837626 L24.7508056,8.78837626 Z M10.8324831,19.3730868 C10.7964229,19.5202503 10.8157762,19.6637406 10.8149072,19.8045451 C10.8120635,20.2865983 10.8145123,20.2761713 11.2923788,20.3083213 C12.0270113,20.3576918 12.7607353,20.4212019 13.4944988,20.4821843 C14.5165463,20.5671805 15.5381989,20.6560868 16.5601674,20.7418729 C17.3987147,20.812295 18.2375386,20.8800707 19.0761255,20.9500978 C20.1307575,21.0381352 21.1853105,21.127476 22.2399425,21.2158293 C22.9343676,21.274047 23.6292667,21.3270116 24.3230994,21.3912327 C24.632593,21.4198676 24.6377275,21.4251601 24.637767,21.1207221 C24.6379645,18.8832134 24.6378855,16.6457046 24.6378855,14.4081959 C24.6378855,13.0723103 24.6380435,11.7363851 24.6378065,10.4004205 C24.6377275,10.1053036 24.6370166,10.1064095 24.3533931,10.0843706 C24.0061016,10.0573946 23.6587705,10.0300236 23.3116764,9.99976935 C22.1788021,9.90106793 21.0462833,9.79825888 19.9132115,9.70220372 C18.6292636,9.59335173 17.3447232,9.4914511 16.0607753,9.38255962 C15.8991957,9.36885438 15.7782183,9.40246578 15.6593342,9.52786675 C15.3555281,9.84830078 14.8602042,9.78621249 14.6343245,9.40495406 C14.5720782,9.29989372 14.5010242,9.26154274 14.3853789,9.25230059 C13.2647089,9.16280183 12.144039,9.07219716 11.024238,8.97238984 C10.8510464,8.95698625 10.811787,9.01204419 10.8111551,9.17362383 C10.8065735,10.3181891 10.817356,11.4626753 10.7929473,12.607438 C10.768183,13.7712775 10.8118265,14.9364993 10.8013205,16.1001808 C10.7944481,16.8629347 10.8399874,17.6245826 10.8153812,18.386823 C10.8132089,18.4536904 10.7972919,18.5271141 10.8405404,18.5952059 C11.2076591,18.262449 11.567234,18.2267837 11.8518449,18.4865513 C12.0972753,18.7105353 12.1341649,19.099219 11.9353402,19.3660565 C11.6922795,19.692336 11.3494511,19.6977075 10.8324831,19.3730868 L10.8324831,19.3730868 Z M31.0180497,13.1420214 C31.0180102,13.2932135 30.9582917,13.4722505 31.0197876,13.5892387 C31.1207798,13.7815071 30.9763021,13.9313563 31.0033176,14.1063647 C31.0330188,14.2985145 31.009795,14.5000645 30.9979461,14.6968749 C30.9915477,14.8036731 30.927445,14.8932508 30.8685955,14.9814067 C29.5570791,16.9452451 28.2454837,18.9089255 26.9350337,20.8733958 C26.5990776,21.3769745 26.2607122,21.8790129 25.9350252,22.3892269 C25.735608,22.7017617 25.4744975,22.8174466 25.1025207,22.7817813 C24.0815791,22.6837908 23.0581098,22.6120259 22.0359043,22.5268323 C20.8500258,22.4279729 19.6645424,22.3245319 18.4786639,22.225554 C17.6072951,22.1528017 16.7354522,22.0861713 15.8640834,22.012945 C14.8552672,21.9281858 13.8468854,21.8377392 12.8381087,21.752506 C11.986488,21.6806226 11.1345513,21.6132023 10.2828517,21.5423853 C10.1782258,21.5336566 10.0726125,21.5239405 9.9703959,21.5012301 C9.72385958,21.4464486 9.52922148,21.2281522 9.50295639,20.9775873 C9.48790828,20.833939 9.47692829,20.6889083 9.47823167,20.5445886 C9.48857971,19.4130571 9.45923391,18.2814467 9.48940914,17.1496388 C9.49458316,16.9542503 9.4245561,16.7250923 9.45050522,16.5535201 C9.48605195,16.3188327 9.44730601,16.092558 9.47420304,15.8641505 C9.53123579,15.3792931 9.47641483,14.8926189 9.47661232,14.4066951 C9.47736275,12.4531257 9.47977202,10.4995959 9.47424253,8.54606604 C9.47321563,8.20580484 9.55272182,7.91131992 9.74735992,7.62256198 C10.9687061,5.81114007 12.1754781,3.98992306 13.3881351,2.1725372 C13.6900453,1.72002731 14.0085835,1.27786548 14.2926809,0.814454597 C14.3958849,0.646160575 14.5164673,0.491966755 14.6196318,0.325292084 C14.7605944,0.0976350208 14.9627763,-0.0110984793 15.2308381,0.000908416456 C15.8220987,0.02729199 16.4096862,0.102137607 16.9996434,0.141318003 C17.7128294,0.188674148 18.4248304,0.252934738 19.1376608,0.303727067 C19.5549004,0.333467832 19.9740754,0.377940742 20.391947,0.419569913 C20.6985968,0.450140102 21.0069054,0.488372586 21.3128048,0.497654232 C21.9577805,0.517204934 22.5933165,0.622976207 23.235172,0.665632284 C23.7594863,0.700507576 24.2823787,0.758330259 24.8068904,0.788860951 C25.6850132,0.839929754 26.5585543,0.941198441 27.4347023,1.01304233 C28.1422797,1.0709835 28.8498176,1.12916165 29.5573161,1.18809024 C29.8390041,1.21159057 30.1210872,1.23212868 30.4019064,1.26337031 C30.8067836,1.30839617 31.0082941,1.53467086 31.009558,1.94768438 C31.0124807,2.89536022 31.0107824,3.84303607 31.0108614,4.79071191 C31.0109404,5.75813594 31.0108614,6.72555997 31.0108614,7.6930235 C31.0184842,9.50934296 31.0187607,11.3256624 31.0180497,13.1420214 Z" id="Fill-1"></path>
                        <path d="M18.866384,31.4321119 C18.866384,31.2807224 18.8609335,31.1290958 18.8679243,30.9780222 C18.8749942,30.8250528 18.7945401,30.7910859 18.6610029,30.7872942 C17.9637735,30.7675066 17.2697433,30.7038779 16.5762266,30.6320735 C15.3514837,30.5052507 14.1366544,30.3155101 12.9319362,30.0625754 C11.4614075,29.7538718 10.0166698,29.3514433 8.60969074,28.8226264 C6.77804669,28.1341652 5.03775774,27.2686418 3.47461,26.0786953 C2.41350059,25.2709551 1.48881163,24.3329953 0.81725489,23.167181 C0.283777452,22.2412282 -0.00893012872,21.2448138 0.000193532201,20.1749362 C0.00607849098,19.4852901 0.162958063,18.8192234 0.431256889,18.1806066 C0.708995346,17.5195954 1.08113012,16.9060983 1.55706135,16.3832849 C2.46030378,15.3911757 3.51402738,14.5759706 4.69512675,13.925426 C5.88716663,13.2688384 7.13264508,12.7419963 8.41975271,12.3077732 C8.46959713,12.2909478 8.51952054,12.2732929 8.57074732,12.261997 C8.67351687,12.239326 8.75890802,12.2678424 8.7917295,12.3738902 C8.82534091,12.4826632 8.76518794,12.5451464 8.666684,12.5849588 C8.3372843,12.718101 8.00654171,12.8483205 7.68089416,12.9901125 C6.27506045,13.6021877 4.94371689,14.3387555 3.75882586,15.3242688 C2.94200148,16.0036063 2.22688025,16.7689275 1.71836452,17.7077956 C1.36645188,18.3575899 1.15502783,19.0522915 1.1400982,19.7984568 C1.11695333,20.9532516 1.54118381,21.9469803 2.26029418,22.8218643 C3.29711332,24.0832993 4.63031321,24.9537202 6.08630731,25.6505152 C8.31911597,26.7192079 10.6846719,27.3509128 13.1163843,27.7549606 C14.3302261,27.9566686 15.5519673,28.0962487 16.7807783,28.1725557 C17.397988,28.2108672 18.0149213,28.2451895 18.6335529,28.2530493 C18.8167765,28.2553401 18.8783909,28.1934493 18.8698991,28.0136223 C18.8580897,27.7640843 18.8650016,27.5135193 18.8682798,27.2634283 C18.8691882,27.1942702 18.8367617,27.1042185 18.9083291,27.0620363 C18.9830957,27.0179584 19.0413924,27.0955293 19.0984646,27.1333668 C19.8277256,27.6170788 20.5553276,28.1032791 21.2839171,28.5879785 C21.6892684,28.8576597 22.0951725,29.1265905 22.5017481,29.3943758 C22.7287733,29.5439091 22.7313405,29.5632623 22.5135575,29.7086089 C21.3750748,30.4683611 20.2363155,31.2276392 19.0964898,31.9854166 C19.0399705,32.0230171 18.9822663,32.0991266 18.9057618,32.050783 C18.8435156,32.0114447 18.8693067,31.9301216 18.8680033,31.8665325 C18.8650411,31.7217783 18.8670949,31.5769451 18.8670949,31.4321119 L18.866384,31.4321119 Z" id="Fill-3"></path>
                        <path d="M23.30826,30.6596183 C23.4387955,30.5147061 23.564315,30.4547901 23.6763267,30.3788386 C24.0249611,30.1423739 24.3735955,29.9057511 24.7285494,29.679042 C24.8747649,29.5856725 24.8770557,29.5274549 24.7304452,29.4318342 C24.1958224,29.0831603 23.6664131,28.7264686 23.1356609,28.3719097 C23.0886602,28.3405496 23.0058758,28.3235661 23.0190281,28.2552769 C23.0334048,28.1806288 23.1156362,28.2060249 23.1708521,28.2024703 C25.2485981,28.0683801 27.3098345,27.8122461 29.33742,27.329877 C31.419471,26.8345136 33.4384464,26.1623644 35.301332,25.0849035 C36.4091657,24.4441934 37.4153356,23.6735403 38.193651,22.6431985 C38.7858201,21.8593141 39.1586263,20.9869183 39.1706727,19.9848955 C39.1791249,19.283124 39.020705,18.625707 38.7236133,17.9874457 C38.0122837,16.4591338 36.791293,15.4166271 35.4398853,14.499482 C34.2859199,13.7163085 33.034833,13.1172671 31.7336647,12.6204818 C31.702976,12.6087514 31.6728008,12.5954806 31.6427045,12.5822493 C31.5467283,12.5401857 31.4891426,12.4710275 31.5265457,12.3646638 C31.5637118,12.25909 31.654277,12.2329434 31.7529784,12.2651725 C32.0155897,12.3510376 32.2773717,12.4399044 32.5372577,12.5337873 C33.9094801,13.0295062 35.2230502,13.6463209 36.4569168,14.42906 C37.1264197,14.8537249 37.7602179,15.336647 38.3081905,15.8983643 C39.2560638,16.8698565 40.0001754,17.9800599 40.2338359,19.3624327 C40.4733814,20.7797599 40.1444951,22.0783215 39.417604,23.2924003 C38.6349045,24.5995326 37.5430669,25.6079934 36.3039868,26.4673553 C34.4367961,27.7624412 32.3784429,28.6545852 30.2181495,29.3274848 C28.745488,29.7862746 27.2455739,30.1281157 25.7223175,30.369004 C24.9882775,30.4850443 24.2511568,30.5776633 23.5125747,30.6588678 C23.4619799,30.6644368 23.4101606,30.6596183 23.30826,30.6596183" id="Fill-6"></path>
                        <path d="M13.3152169,17.0762506 C13.3155724,17.4551393 13.0307246,17.7417644 12.6558645,17.7396711 C12.3088494,17.7377753 12.0094275,17.4295061 12.0099804,17.0735648 C12.0102569,16.8953572 12.0398792,16.6777717 12.140042,16.5794653 C12.2576227,16.4640569 12.4790788,16.4289051 12.6738749,16.430011 C13.0573451,16.4320648 13.3148219,16.6900551 13.3152169,17.0762506" id="Fill-9"></path>
                        <path d="M22.3535222,13.828484 C22.3517844,14.1939834 22.0454111,14.4989349 21.6869025,14.492023 C21.3221931,14.4849927 21.0339486,14.1803177 21.040505,13.8087753 C21.0468244,13.4488844 21.3432841,13.1647871 21.7059003,13.1711065 C22.0660282,13.1774259 22.3552601,13.4709629 22.3535222,13.828484" id="Fill-11"></path>
                        <path d="M23.8551939,13.3547607 C24.2313178,13.3539707 24.5212211,13.639569 24.522643,14.0122962 C24.5239859,14.3610491 24.2195479,14.667067 23.869926,14.6684493 C23.4962904,14.6699107 23.2082039,14.3818637 23.2094677,14.0080701 C23.2107316,13.6409513 23.4928147,13.3555506 23.8551939,13.3547607" id="Fill-13"></path>
                        <path d="M15.2045612,11.8315279 C14.8244481,11.8336607 14.5398768,11.5561988 14.5362037,11.1799564 C14.5327675,10.8288732 14.8368105,10.5190636 15.1853265,10.5185107 C15.5559999,10.5179182 15.8452318,10.8096384 15.8438889,11.1827211 C15.8425065,11.5666258 15.5835288,11.8294346 15.2045612,11.8315279" id="Fill-15"></path>
                        <path d="M15.8435255,13.2930476 C15.8405238,13.6737531 15.5618374,13.9439872 15.1776563,13.9387737 C14.8284689,13.9340341 14.5377361,13.6442098 14.5358798,13.298893 C14.5338655,12.934697 14.8388564,12.6230707 15.1936128,12.6268229 C15.5707636,12.630812 15.8465272,12.913527 15.8435255,13.2930476" id="Fill-17"></path>
                        <path d="M14.5802184,15.175563 C14.5821537,15.5549651 14.2973059,15.8452634 13.9282519,15.8400103 C13.5610936,15.8347968 13.2765223,15.550028 13.2784971,15.1898211 C13.2804719,14.8222284 13.5633054,14.5263612 13.9165214,14.5223325 C14.2963975,14.5180274 14.5783226,14.7954894 14.5802184,15.175563" id="Fill-19"></path>
                        <path d="M19.5541777,12.9966708 C19.9164383,13.0080062 20.1941373,13.3032021 20.1835918,13.6656208 C20.1727303,14.0370446 19.8676998,14.326316 19.5042543,14.309846 C19.1526971,14.293929 18.8586071,13.9794589 18.871246,13.6329968 C18.8849512,13.2573468 19.1773428,12.9848614 19.5541777,12.9966708" id="Fill-21"></path>
                        <path d="M18.0144355,13.4754853 C18.0132111,13.8397208 17.7292322,14.1192365 17.3588748,14.1208559 C16.9994973,14.1224358 16.7063948,13.831229 16.7026821,13.4688499 C16.6990879,13.118912 17.00242,12.8109984 17.3541352,12.8075622 C17.721017,12.803968 18.0157388,13.1020866 18.0144355,13.4754853" id="Fill-23"></path>
                        <path d="M15.8438731,6.96687488 C15.8441496,7.33972059 15.573165,7.61971034 15.2062042,7.6255953 C14.844536,7.63132227 14.5366618,7.3298465 14.5340945,6.96746732 C14.5316063,6.61847742 14.8373477,6.30862842 15.1857846,6.30700906 C15.5611976,6.30531072 15.8435571,6.58846018 15.8438731,6.96687488" id="Fill-25"></path>
                        <path d="M15.8438731,4.87225611 C15.839252,5.25999195 15.5680305,5.52023352 15.176108,5.51300569 C14.8129389,5.5062913 14.5336996,5.21844178 14.5358719,4.85306088 C14.5380047,4.49522379 14.8545681,4.1917337 15.214301,4.2026347 C15.5760087,4.21357519 15.8482967,4.50320205 15.8438731,4.87225611" id="Fill-27"></path>
                        <path d="M28.2148385,13.7106111 C28.5617351,13.7128229 28.8626579,14.0244492 28.8576813,14.3763224 C28.8528628,14.7136213 28.5235026,15.0357932 28.1914171,15.0280519 C27.8416768,15.0199157 27.5222697,14.6920168 27.5279176,14.3468976 C27.5332891,14.0238173 27.8737083,13.7083993 28.2148385,13.7106111" id="Fill-29"></path>
                    </g>
                </g>
            </g>
        </g>
    </g>
</svg>