<?xml version="1.0" encoding="UTF-8"?>
<svg width="34px" height="34px" viewBox="0 0 34 34" version="1.1" xmlns="http://www.w3.org/2000/svg" xmlns:xlink="http://www.w3.org/1999/xlink">
    <!-- Generator: Sketch 46.2 (44496) - http://www.bohemiancoding.com/sketch -->
    <title>Add</title>
    <desc>Created with Sketch.</desc>
    <defs></defs>
    <g id="Page-1" stroke="none" stroke-width="1" fill="none" fill-rule="evenodd">
        <g id="5-WebEditor" transform="translate(-81.000000, -242.000000)" fill-rule="nonzero" fill="#FFFFFF">
            <g id="Menu" transform="translate(0.000000, -1.000000)">
                <g id="Add" transform="translate(40.000000, 208.000000)">
                    <path d="M58,66.1666667 C65.824034,66.1666667 72.1666667,59.824034 72.1666667,52 C72.1666667,44.175966 65.824034,37.8333333 58,37.8333333 C50.175966,37.8333333 43.8333333,44.175966 43.8333333,52 C43.8333333,59.824034 50.175966,66.1666667 58,66.1666667 Z M58,69 C48.6111593,69 41,61.3888407 41,52 C41,42.6111593 48.6111593,35 58,35 C67.3888407,35 75,42.6111593 75,52 C75,61.3888407 67.3888407,69 58,69 Z M59.4166667,50.5833333 L65.0891266,50.5833333 C65.87153,50.5833333 66.5057933,51.2175966 66.5057933,52 C66.5057933,52.7824034 65.87153,53.4166667 65.0891266,53.4166667 L59.4166667,53.4166667 L59.4166667,59.0833333 C59.4166667,59.8657367 58.7824034,60.5 58,60.5 C57.2175966,60.5 56.5833333,59.8657367 56.5833333,59.0833333 L56.5833333,53.4166667 L50.9166667,53.4166667 C50.1342633,53.4166667 49.5,52.7824034 49.5,52 C49.5,51.2175966 50.1342633,50.5833333 50.9166667,50.5833333 L56.5833333,50.5833333 L56.5833333,44.9166667 C56.5833333,44.1342633 57.2175966,43.5 58,43.5 C58.7824034,43.5 59.4166667,44.1342633 59.4166667,44.9166667 L59.4166667,50.5833333 Z"></path>
                </g>
            </g>
        </g>
    </g>
</svg>