<?xml version="1.0" encoding="UTF-8"?>
<svg width="16px" height="16px" viewBox="0 0 16 16" version="1.1" xmlns="http://www.w3.org/2000/svg" xmlns:xlink="http://www.w3.org/1999/xlink">
    <!-- Generator: Sketch 46.2 (44496) - http://www.bohemiancoding.com/sketch -->
    <title>Alignment - Center</title>
    <desc>Created with Sketch.</desc>
    <defs></defs>
    <g id="Page-1" stroke="none" stroke-width="1" fill="none" fill-rule="evenodd">
        <g id="5-WebEditor" transform="translate(-1206.000000, -605.000000)" fill="#32363E">
            <g id="Style-Settings" transform="translate(1117.000000, -1.000000)">
                <g id="Text-Align" transform="translate(40.000000, 529.000000)">
                    <g id="Center" transform="translate(0.000000, 69.000000)">
                        <path d="M53.6666667,17.778 L60.3333333,17.778 C60.702,17.778 61,18.0766667 61,18.4446667 C61,18.8126667 60.702,19.1113333 60.3333333,19.1113333 L53.6666667,19.1113333 C53.298,19.1113333 53,18.8126667 53,18.4446667 C53,18.0766667 53.298,17.778 53.6666667,17.778 M49.6666667,22.6666667 L64.3333333,22.6666667 C64.702,22.6666667 65,22.9653333 65,23.3333333 C65,23.702 64.702,24 64.3333333,24 L49.6666667,24 C49.298,24 49,23.702 49,23.3333333 C49,22.9653333 49.298,22.6666667 49.6666667,22.6666667 M51.6666667,12.6666667 L62.3333333,12.6666667 C62.702,12.6666667 63,12.9653333 63,13.3333333 C63,13.7013333 62.702,14 62.3333333,14 L51.6666667,14 C51.298,14 51,13.7013333 51,13.3333333 C51,12.9653333 51.298,12.6666667 51.6666667,12.6666667 M49.6666667,8 L64.3333333,8 C64.702,8 65,8.29866667 65,8.66666667 C65,9.03533333 64.702,9.33333333 64.3333333,9.33333333 L49.6666667,9.33333333 C49.298,9.33333333 49,9.03533333 49,8.66666667 C49,8.29866667 49.298,8 49.6666667,8" id="Alignment---Center"></path>
                    </g>
                </g>
            </g>
        </g>
    </g>
</svg>