<?xml version="1.0" encoding="UTF-8"?>
<svg width="16px" height="16px" viewBox="0 0 16 16" version="1.1" xmlns="http://www.w3.org/2000/svg" xmlns:xlink="http://www.w3.org/1999/xlink">
    <!-- Generator: Sketch 46.2 (44496) - http://www.bohemiancoding.com/sketch -->
    <title>Alignment - Right</title>
    <desc>Created with Sketch.</desc>
    <defs></defs>
    <g id="Page-1" stroke="none" stroke-width="1" fill="none" fill-rule="evenodd">
        <g id="5-WebEditor" transform="translate(-1336.000000, -559.000000)" fill="#FFFFFF">
            <g id="Style-Settings" transform="translate(1117.000000, -1.000000)">
                <g id="Text-Align" transform="translate(40.000000, 529.000000)">
                    <g id="Right" transform="translate(130.000000, 23.000000)">
                        <path d="M49.6666667,22.6666667 L64.3333333,22.6666667 C64.702,22.6666667 65,22.9653333 65,23.3333333 C65,23.7013333 64.702,24 64.3333333,24 L49.6666667,24 C49.298,24 49,23.7013333 49,23.3333333 C49,22.9653333 49.298,22.6666667 49.6666667,22.6666667 M51.6666667,17.3333333 L64.3333333,17.3333333 C64.702,17.3333333 65,17.6313333 65,18 C65,18.368 64.702,18.6666667 64.3333333,18.6666667 L51.6666667,18.6666667 C51.298,18.6666667 51,18.368 51,18 C51,17.6313333 51.298,17.3333333 51.6666667,17.3333333 M54.3333333,12.6666667 L64.3333333,12.6666667 C64.702,12.6666667 65,12.9653333 65,13.3333333 C65,13.702 64.702,14 64.3333333,14 L54.3333333,14 C53.9646667,14 53.6666667,13.702 53.6666667,13.3333333 C53.6666667,12.9653333 53.9646667,12.6666667 54.3333333,12.6666667 M49.6666667,8 L64.3333333,8 C64.702,8 65,8.29866667 65,8.66666667 C65,9.03466667 64.702,9.33333333 64.3333333,9.33333333 L49.6666667,9.33333333 C49.298,9.33333333 49,9.03466667 49,8.66666667 C49,8.29866667 49.298,8 49.6666667,8" id="Alignment---Right"></path>
                    </g>
                </g>
            </g>
        </g>
    </g>
</svg>