<?xml version="1.0" encoding="UTF-8"?>
<svg width="34px" height="36px" viewBox="0 0 34 36" version="1.1" xmlns="http://www.w3.org/2000/svg" xmlns:xlink="http://www.w3.org/1999/xlink">
    <!-- Generator: Sketch 46.2 (44496) - http://www.bohemiancoding.com/sketch -->
    <title>Box</title>
    <desc>Created with Sketch.</desc>
    <defs></defs>
    <g id="Page-1" stroke="none" stroke-width="1" fill="none" fill-rule="evenodd">
        <g id="5-WebEditor" transform="translate(-209.000000, -242.000000)" fill="#FFFFFF">
            <g id="Menu" transform="translate(0.000000, -1.000000)">
                <g id="3DBox" transform="translate(168.000000, 208.000000)">
                    <path d="M70.3567053,43.9413217 C66.1898413,41.9425416 62.2797185,40.0822223 58.3888632,38.1801174 C57.9151206,37.9484429 57.6241795,38.188524 57.2836243,38.3492374 C55.2128367,39.3258803 53.1461435,40.3114243 51.0840264,41.3076001 C49.3340447,42.153447 47.5920109,43.0175906 45.6707882,43.9598656 C49.761545,45.9329316 53.6300017,47.7927564 57.4900287,49.6701361 C57.8512966,49.8459319 58.1364574,49.8486516 58.4994112,49.6718669 C62.3594383,47.7934982 66.2281357,45.9331788 70.3567053,43.9413217 M59.4449697,67.2155883 C63.6079801,65.2177972 67.589634,63.3040715 71.5753823,61.3997414 C71.9657925,61.2133139 72.059963,60.9168595 72.0594813,60.5116145 C72.0529785,56.1446607 72.0508109,51.7779541 72.0618897,47.4114948 C72.0635757,46.7496029 71.9171417,46.4840549 71.2304919,46.8183388 C67.5036523,48.6329166 63.7691056,50.4309286 60.0302237,52.2190506 C59.6140431,52.4180879 59.4341317,52.6658338 59.4358176,53.1531663 C59.4514725,57.7651462 59.4449697,62.3771261 59.4449697,67.2155883 M56.5471195,67.2180608 C56.5471195,62.3791041 56.5394124,57.7300365 56.5577167,53.0807216 C56.5598843,52.5553124 56.2792996,52.3708629 55.898764,52.1881442 C52.1988991,50.4113958 48.4987933,48.6351419 44.8066354,46.8415804 C44.2134335,46.5535325 43.9292361,46.59334 43.9314037,47.3608083 C43.9446502,51.7272676 43.94176,56.0939741 43.9326079,60.4606807 C43.9316445,60.916365 44.0429151,61.2234512 44.4814943,61.4323786 C48.4364144,63.3161869 52.3831457,65.2182917 56.5471195,67.2180608 M74.9787667,53.0218758 C74.9785259,55.8219976 74.9498653,58.6228612 74.9927358,61.4224886 C75.0098358,62.5487186 74.6225566,63.2447312 73.5970375,63.7281077 C68.7225701,66.0260619 63.8671296,68.3667907 59.0220454,70.7295249 C58.3028815,71.0801273 57.7173866,71.0957042 56.991479,70.7421347 C52.1097863,68.3625875 47.213643,66.0151829 42.3083475,63.6878057 C41.3883186,63.251407 40.9998351,62.6060809 41.0039295,61.5730647 C41.0258464,55.890239 41.0323493,50.2069189 41.000076,44.5240932 C40.9933323,43.3382756 41.4350425,42.6459718 42.491149,42.1470185 C47.1811289,39.9301627 51.8532861,37.6720158 56.5068983,35.3752978 C57.5841992,34.8437073 58.504469,34.8936521 59.5682825,35.418814 C64.1491594,37.6806696 68.7466547,39.9084045 73.3723288,42.0721013 C74.5755918,42.6348455 75.0295851,43.4193741 74.998516,44.7448887 C74.9339695,47.5022361 74.9790076,50.2625504 74.9787667,53.0218758" id="Box"></path>
                </g>
            </g>
        </g>
    </g>
</svg>