<?xml version="1.0" encoding="UTF-8"?>
<svg width="39px" height="20px" viewBox="0 0 39 20" version="1.1" xmlns="http://www.w3.org/2000/svg" xmlns:xlink="http://www.w3.org/1999/xlink">
    <!-- Generator: Sketch 46.2 (44496) - http://www.bohemiancoding.com/sketch -->
    <title>Button2</title>
    <desc>Created with Sketch.</desc>
    <defs></defs>
    <g id="Page-1" stroke="none" stroke-width="1" fill="none" fill-rule="evenodd">
        <g id="5-WebEditor" transform="translate(-79.000000, -888.000000)" fill-rule="nonzero" fill="#FFFFFF">
            <g id="Menu" transform="translate(0.000000, -1.000000)">
                <g id="Button" transform="translate(40.000000, 848.000000)">
                    <g id="Button2" transform="translate(39.000000, 41.000000)">
                        <path d="M3.44464046,0 C1.56239975,0 3.51614168e-16,1.54769612 0,3.41222471 L0,16.5877753 C0,18.3916976 1.49042121,20 3.44464046,20 L34.560066,20 C36.3811256,20 38.0047069,18.5236047 38.0047069,16.5877753 L38.0047069,3.41222471 C38.0047069,1.54769612 36.4423073,0 34.560066,0 L3.44464046,0 Z M3.44464046,2.35294118 L34.560066,2.35294118 C35.2906494,2.35294118 35.6294127,2.68851647 35.6294127,3.41222471 L35.6294127,16.5877753 C35.6294127,17.2401824 35.1143017,17.6470588 34.560066,17.6470588 L3.44464046,17.6470588 C2.78603623,17.6470588 2.37529418,17.1367953 2.37529418,16.5877753 L2.37529418,3.41222471 C2.37529418,2.68851647 2.71405757,2.35294118 3.44464046,2.35294118 Z M11.2826474,8.23529412 C10.2987683,8.23529412 9.50117672,9.02537985 9.50117672,10 C9.50117672,10.9746201 10.2987683,11.7647059 11.2826474,11.7647059 C12.2665264,11.7647059 13.064118,10.9746201 13.064118,10 C13.064118,9.02537985 12.2665264,8.23529412 11.2826474,8.23529412 Z M18.4085299,8.23529412 C17.4246508,8.23529412 16.6270593,9.02537985 16.6270593,10 C16.6270593,10.9746201 17.4246508,11.7647059 18.4085299,11.7647059 C19.392409,11.7647059 20.1900005,10.9746201 20.1900005,10 C20.1900005,9.02537985 19.392409,8.23529412 18.4085299,8.23529412 L18.4085299,8.23529412 Z M25.5344124,8.23529412 C24.5505334,8.23529412 23.7529418,9.02537985 23.7529418,10 C23.7529418,10.9746201 24.5505334,11.7647059 25.5344124,11.7647059 C26.5182915,11.7647059 27.3158831,10.9746201 27.3158831,10 C27.3158831,9.02537985 26.5182915,8.23529412 25.5344124,8.23529412 Z" id="Shape"></path>
                    </g>
                </g>
            </g>
        </g>
    </g>
</svg>