<?xml version="1.0" encoding="UTF-8"?>
<svg width="26px" height="34px" viewBox="0 0 26 34" version="1.1" xmlns="http://www.w3.org/2000/svg" xmlns:xlink="http://www.w3.org/1999/xlink">
    <!-- Generator: Sketch 46.2 (44496) - http://www.bohemiancoding.com/sketch -->
    <title>Cylinder</title>
    <desc>Created with Sketch.</desc>
    <defs></defs>
    <g id="Page-1" stroke="none" stroke-width="1" fill="none" fill-rule="evenodd">
        <g id="5-WebEditor" transform="translate(-85.000000, -370.000000)" fill="#FFFFFF">
            <g id="Menu" transform="translate(0.000000, -1.000000)">
                <g id="Cylinder" transform="translate(40.000000, 336.000000)">
                    <path d="M68.1445882,46.1749506 L68.1445882,59.0860613 C67.8513782,58.9246535 67.5441849,58.7712405 67.2251933,58.6275508 C64.7036303,57.491214 61.3839328,56.8654617 57.8769916,56.8654617 C54.3698319,56.8654617 51.0501345,57.491214 48.5287899,58.6275508 C48.2980672,58.7314827 48.0747731,58.8401683 47.8556303,58.9549039 L47.8556303,46.1749506 C48.2543697,46.4331598 48.6891597,46.6749474 49.1558487,46.8977204 C51.5417311,48.0366501 54.6827059,48.6639149 58,48.6639149 C61.3175126,48.6639149 64.4584874,48.0366501 66.8443697,46.8977204 C67.3110588,46.6749474 67.7458487,46.4331598 68.1445882,46.1749506 M58,37.6024035 C60.8722353,37.6024035 63.5504538,38.1257364 65.5415294,39.0760329 C66.4205042,39.495866 67.1257815,39.9889484 67.5804538,40.5021258 C67.7502185,40.693568 67.8867731,40.8927888 67.9864034,41.0939544 C68.1102857,41.3435206 68.1729916,41.5917904 68.1729916,41.8318494 C68.1729916,42.0429544 68.1262353,42.2585969 68.0340336,42.4722948 C67.9352773,42.70155 67.7825546,42.9336142 67.5804538,43.1617891 C67.126,43.6747504 66.4207227,44.1678328 65.5415294,44.5876659 C63.5506723,45.5379624 60.8724538,46.0615114 58,46.0615114 C55.1277647,46.0615114 52.4495462,45.5379624 50.4586891,44.5876659 C49.5792773,44.1678328 48.8742185,43.6747504 48.4197647,43.1617891 C48.2176639,42.9336142 48.0649412,42.70155 47.9661849,42.4725109 C47.8739832,42.2585969 47.8272269,42.0429544 47.8272269,41.8318494 C47.8272269,41.5917904 47.8899328,41.3435206 48.0135966,41.0937383 C48.1132269,40.8927888 48.2497815,40.693568 48.4197647,40.5021258 C48.874437,39.9889484 49.5794958,39.495866 50.4586891,39.0760329 C52.4497647,38.1257364 55.1279832,37.6024035 58,37.6024035 M58,66.3975965 C55.1279832,66.3975965 52.4497647,65.8742636 50.4586891,64.9239671 C49.5792773,64.504134 48.8742185,64.0110516 48.4197647,63.4978742 C48.2465042,63.3027588 48.1082017,63.0998646 48.0081345,62.8945937 C47.9015126,62.6761422 47.8414286,62.458771 47.8296303,62.24745 C48.3129244,61.778784 49.0140504,61.3308612 49.8689916,60.9456 C51.9837311,59.9927107 54.8277815,59.4678652 57.8769916,59.4678652 C60.9262017,59.4678652 63.7702521,59.9927107 65.8847731,60.9456 C66.8198992,61.3669457 67.5693109,61.8617567 68.0523866,62.3764466 C68.0812269,62.4073453 68.1096303,62.4391082 68.1384706,62.4725998 C68.1089748,62.6139127 68.0600336,62.7552255 67.9918655,62.8948098 C67.8920168,63.0998646 67.7537143,63.3027588 67.5804538,63.4978742 L67.5804538,63.4980903 C67.126,64.0110516 66.4207227,64.504134 65.5415294,64.9239671 C63.5504538,65.8742636 60.8722353,66.3975965 58,66.3975965 M70.9967227,41.7449874 L70.9949748,41.7173298 C70.938605,39.7750345 69.4646891,38.0168348 66.8443697,36.7659784 C64.4584874,35.6272648 61.3175126,35 58,35 C54.6827059,35 51.5417311,35.6272648 49.1558487,36.7659784 C46.5350924,38.0170508 45.0611765,39.7756827 45.0052437,41.7171138 L45.0034958,41.7449874 C45.0017479,41.7739414 45,41.8028954 45,41.8318494 L45,62.1681506 C45,62.1914867 45.0013109,62.2148227 45.0037143,62.2552287 C45.0469748,64.2085438 46.5215462,65.976683 49.1558487,67.2340216 C51.5417311,68.3727352 54.6827059,69 58,69 C61.3175126,69 64.4584874,68.3727352 66.8443697,67.2340216 C69.4784538,65.976683 70.9530252,64.2085438 70.9973782,62.2379427 C70.9986891,62.2148227 71,62.1914867 71,62.1681506 L71,41.8318494 C71,41.8028954 70.9984706,41.7739414 70.9967227,41.7449874"></path>
                </g>
            </g>
        </g>
    </g>
</svg>