<?xml version="1.0" encoding="UTF-8"?>
<svg width="255px" height="547px" viewBox="0 0 255 547" version="1.1" xmlns="http://www.w3.org/2000/svg" xmlns:xlink="http://www.w3.org/1999/xlink">
    <!-- Generator: Sketch 46.2 (44496) - http://www.bohemiancoding.com/sketch -->
    <title>Icon</title>
    <desc>Created with Sketch.</desc>
    <defs></defs>
    <g id="Page-1" stroke="none" stroke-width="1" fill="none" fill-rule="evenodd">
        <g id="1-WebLogin" transform="translate(-1020.000000, -280.000000)">
            <g id="Icon" transform="translate(1020.000000, 280.000000)">
                <path d="M245.797544,209.909369 L132.050413,274.397863 L132.050413,141.1142 L245.797544,76.6257061 L245.797544,209.909369 Z M122.671084,274.267912 L9.15182396,209.909369 L9.15182396,76.6257061 L122.898955,141.1142 L122.898955,263.188242 C122.764428,263.619276 122.671084,264.069527 122.671084,264.545403 L122.671084,274.267912 Z M127.474684,10.6372886 L240.754175,68.9650207 L127.474684,133.189037 L115.712315,126.519455 L14.1951924,68.9650207 L127.474684,10.6372886 Z M254.946256,68.7252525 C254.945341,68.709695 254.948086,68.6950527 254.948086,68.6794952 C254.946256,68.6007927 254.932529,68.5248356 254.927953,68.4470482 C254.919717,68.3354004 254.914226,68.2228375 254.897753,68.1121048 C254.884941,68.0196751 254.862063,67.9299908 254.84376,67.8393914 C254.820881,67.7323193 254.800748,67.6243321 254.770548,67.5190903 C254.744924,67.4303212 254.711979,67.3433824 254.680864,67.2564435 C254.645173,67.1539472 254.610398,67.0514508 254.567386,66.9535302 C254.53078,66.8675065 254.486853,66.7860586 254.444756,66.7036954 C254.396253,66.6085203 254.348666,66.5133451 254.293757,66.4209154 C254.245254,66.3403826 254.191261,66.2644255 254.138182,66.1875532 C254.078698,66.0996992 254.018298,66.0127604 253.952408,65.9294821 C253.893838,65.8553553 253.829778,65.7858042 253.766633,65.715338 C253.696167,65.6366355 253.625701,65.5588481 253.549744,65.4856364 C253.480192,65.4179156 253.405151,65.3556857 253.331024,65.2925406 C253.252321,65.2248198 253.172703,65.1580142 253.087595,65.0957843 C253.007977,65.0362998 252.923784,64.9823062 252.83959,64.9283126 C252.784682,64.8926219 252.733434,64.8514404 252.676694,64.8184951 C252.641919,64.7983619 252.603483,64.7837196 252.568707,64.7645015 C252.533932,64.7452835 252.502817,64.7224048 252.468041,64.7041019 L129.569452,1.42268565 C128.255303,0.745477761 126.69498,0.745477761 125.379915,1.42268565 L2.4813263,64.7041019 C2.44655076,64.7214897 2.41635094,64.7443683 2.38249055,64.7635864 C2.34588472,64.7828044 2.30836374,64.7974468 2.27267306,64.8184951 C2.21318858,64.8523555 2.16102527,64.8944522 2.10428623,64.9310581 C2.02283825,64.9841365 1.94139028,65.0362998 1.86360289,65.093954 C1.77757918,65.1580142 1.69521606,65.225735 1.61376809,65.2952861 C1.54147157,65.3566008 1.46917505,65.4179156 1.40053912,65.4838061 C1.32366687,65.5588481 1.2522855,65.6375506 1.18090413,65.7171683 C1.11775907,65.7867194 1.05461401,65.8553553 0.996959824,65.928567 C0.930154181,66.0127604 0.869754559,66.1006144 0.809354937,66.1893835 C0.757191627,66.2662558 0.704113171,66.3412977 0.655610444,66.4209154 C0.600701697,66.51243 0.553114116,66.6085203 0.503696243,66.7046106 C0.462514682,66.7869737 0.418587684,66.8675065 0.381981853,66.9535302 C0.338970001,67.0514508 0.304194461,67.1539472 0.268503775,67.2564435 C0.237388818,67.3433824 0.20444357,67.4303212 0.178819487,67.5190903 C0.148619676,67.6243321 0.128486469,67.7314042 0.105607824,67.8384762 C0.0863897626,67.9299908 0.0644262636,68.0196751 0.0506990768,68.1121048 C0.0351415983,68.2228375 0.0296507236,68.3354004 0.0214144115,68.4470482 C0.0159235368,68.5248356 0.0021963499,68.6007927 0.00128120411,68.6794952 C0.000366058316,68.6950527 0.00311149569,68.709695 0.00311149569,68.7252525 C0.00311149569,68.74081 0.000366058316,68.7563675 0.000366058316,68.7719249 L0.000366058316,212.575189 C0.000366058316,214.222451 0.885312037,215.743424 2.31934549,216.556073 L122.671084,284.787513 L122.671084,306.131458 C122.671084,308.658176 124.720095,310.707187 127.246812,310.707187 C129.77353,310.707187 131.822541,308.658176 131.822541,306.131458 L131.822541,285.046499 L252.630022,216.556073 C254.06314,215.743424 254.949001,214.222451 254.949001,212.575189 L254.949001,68.7719249 C254.949001,68.7563675 254.946256,68.74081 254.946256,68.7252525 L254.946256,68.7252525 Z" id="Fill-1" fill="#FFFFFF"></path>
                <path d="M134.319059,320.950323 C134.319059,324.73079 131.254236,327.794698 127.474684,327.794698 C123.694217,327.794698 120.630308,324.73079 120.630308,320.950323 C120.630308,317.169855 123.694217,314.105947 127.474684,314.105947 C131.254236,314.105947 134.319059,317.169855 134.319059,320.950323" id="Fill-4" fill="#FFFFFF"></path>
                <path d="M127.530142,431.596299 C127.494451,431.593553 127.460591,431.587147 127.4249,431.585317 L53.3044968,390.138364 L127.52099,347.344317 L203.679423,389.473053 L127.530142,431.596299 Z M215.346616,385.46929 L129.689886,338.084872 C128.286052,337.308828 126.579305,337.322555 125.189199,338.125138 L41.7526115,386.236183 C40.3258992,387.057984 39.451935,388.582616 39.4629168,390.229879 C39.4729834,391.876226 40.367996,393.389877 41.8047748,394.193375 L122.607572,439.377783 L122.607572,467.03715 C122.607572,469.563867 124.656584,471.612879 127.183301,471.612879 C129.710019,471.612879 131.75903,469.563867 131.75903,467.03715 L131.75903,439.715472 L215.346616,393.476816 C216.803529,392.671488 217.707693,391.137703 217.707693,389.473053 C217.707693,387.807488 216.803529,386.274619 215.346616,385.46929 L215.346616,385.46929 Z" id="Fill-6" fill="#FFFFFF"></path>
                <path d="M133.612201,480.746949 C133.612201,484.450544 130.610522,487.452222 126.906927,487.452222 C123.203332,487.452222 120.201654,484.450544 120.201654,480.746949 C120.201654,477.043354 123.203332,474.041676 126.906927,474.041676 C130.610522,474.041676 133.612201,477.043354 133.612201,480.746949" id="Fill-8" fill="#FFFFFF"></path>
                <path d="M148.012752,520.364525 C148.012752,532.020737 138.562956,541.470533 126.907659,541.470533 C115.250532,541.470533 105.801652,532.020737 105.801652,520.364525 C105.801652,508.709229 115.250532,499.259433 126.907659,499.259433 C138.562956,499.259433 148.012752,508.709229 148.012752,520.364525 Z" id="Stroke-10" stroke="#FFFFFF" stroke-width="10"></path>
            </g>
        </g>
    </g>
</svg>