<?xml version="1.0" encoding="UTF-8"?>
<svg width="42px" height="34px" viewBox="0 0 42 34" version="1.1" xmlns="http://www.w3.org/2000/svg" xmlns:xlink="http://www.w3.org/1999/xlink">
    <!-- Generator: Sketch 46.2 (44496) - http://www.bohemiancoding.com/sketch -->
    <title>Fill 1</title>
    <desc>Created with Sketch.</desc>
    <defs></defs>
    <g id="Page-1" stroke="none" stroke-width="1" fill="none" fill-rule="evenodd">
        <g id="5-WebEditor" transform="translate(-205.000000, -626.000000)" fill="#FFFFFF">
            <g id="Menu" transform="translate(0.000000, -1.000000)">
                <g id="Image" transform="translate(168.000000, 592.000000)">
                    <path d="M58.4288188,54.1199531 C59.9620063,54.1199531 61.2091156,52.87975 61.2091156,51.3558594 C61.2091156,49.8314375 59.9620063,48.5917656 58.4288188,48.5917656 C56.8953656,48.5917656 55.6479906,49.8314375 55.6479906,51.3558594 C55.6479906,52.87975 56.8953656,54.1199531 58.4288188,54.1199531 L58.4288188,54.1199531 Z M65.9470688,65.3038281 L65.9470688,62.0095469 L63.4180531,59.60325 L59.9965375,62.6805156 C59.3954281,63.1913125 58.5531313,63.1814844 57.9626469,62.6582031 L49.2225219,55.0315781 L40.6183969,62.0313281 L40.6183969,65.3038281 L65.9470688,65.3038281 Z M40.6183969,46.7600156 L40.6183969,57.9215781 L48.2630844,51.7274688 C48.864725,51.228625 49.8172563,51.2445625 50.4013656,51.7627969 L59.0078813,59.3774688 L62.6012563,56.3161406 C63.1936,55.8125156 63.8488969,55.8135781 64.4401781,56.3193281 L65.9470688,57.8421563 L65.9470688,46.7600156 L40.6183969,46.7600156 Z M70.0177719,67.1132656 C70.0177719,68.1125469 69.2076156,68.9224375 68.2086,68.9224375 L38.809225,68.9224375 C37.8099438,68.9224375 37.0000531,68.1125469 37.0000531,67.1132656 L37.0000531,44.9505781 C37.0000531,43.9515625 37.8099438,43.1414063 38.809225,43.1414063 L68.2086,43.1414063 C69.2076156,43.1414063 70.0177719,43.9515625 70.0177719,44.9505781 L70.0177719,67.1132656 Z M78.4704906,42.4050938 L74.1697563,63.1172031 C74.0366781,63.7578906 73.4719594,64.1982969 72.8424281,64.1982969 C72.7510531,64.1982969 72.65835,64.189 72.5653813,64.169875 C71.831725,64.0176719 71.3602406,63.2991563 71.5124438,62.5655 L75.5358656,43.1894844 L49.5981156,37.9508281 L48.9571625,40.837375 C48.7946,41.5689063 48.069975,42.031625 47.3381781,41.868 C46.6069125,41.7054375 46.1455219,40.9808125 46.3078188,40.2490156 L47.2372406,36.0627656 C47.3974125,35.3415938 48.1058344,34.8804688 48.8304594,35.0270938 L77.4103813,40.7996563 C77.7644594,40.8708438 78.0755063,41.0806875 78.2744594,41.3821719 C78.4734125,41.6833906 78.5438031,42.0515469 78.4704906,42.4050938 L78.4704906,42.4050938 Z" id="Fill-1"></path>
                </g>
            </g>
        </g>
    </g>
</svg>