<?xml version="1.0" encoding="UTF-8"?>
<svg width="34px" height="34px" viewBox="0 0 34 34" version="1.1" xmlns="http://www.w3.org/2000/svg" xmlns:xlink="http://www.w3.org/1999/xlink">
    <!-- Generator: Sketch 46.2 (44496) - http://www.bohemiancoding.com/sketch -->
    <title>Fill 1</title>
    <desc>Created with Sketch.</desc>
    <defs></defs>
    <g id="Page-1" stroke="none" stroke-width="1" fill="none" fill-rule="evenodd">
        <g id="5-WebEditor" transform="translate(-81.000000, -754.000000)" fill="#FFFFFF">
            <g id="Menu" transform="translate(0.000000, -1.000000)">
                <g id="Link" transform="translate(40.000000, 720.000000)">
                    <path d="M65.6516644,65.4313338 L58.9466947,58.7257129 L60.7908707,56.881537 L61.9144789,58.0053622 C62.20314,58.2938064 62.5814381,58.438137 62.9597362,58.438137 C63.3382513,58.438137 63.7165493,58.2938064 64.0052105,58.0053622 C64.5825329,57.4278228 64.5825329,56.4919529 64.0052105,55.9146306 L62.8816023,54.7910224 L64.7262123,52.9466294 L71.431182,59.6518161 L65.6516644,65.4313338 Z M51.2741675,51.0534027 L44.5689807,44.347999 L50.3487154,38.5686984 L57.0536851,45.2738851 L55.208858,47.1187122 L54.0854669,45.995104 C53.5079275,45.4179987 52.5722746,45.4179987 51.9947352,45.995104 C51.4174129,46.5724263 51.4174129,47.5085133 51.9947352,48.0858356 L53.1181264,49.2094438 L51.2741675,51.0534027 Z M74.566954,58.6065588 L65.7714697,49.8106404 C65.1943643,49.2337521 64.2584944,49.2335351 63.680738,49.8106404 L60.7908707,52.7005078 L57.2995897,49.2092268 L60.189457,46.3191424 C60.7667794,45.7418201 60.7667794,44.8059502 60.189457,44.2288448 L51.3944068,35.4329264 C50.8173015,34.8558211 49.8812145,34.8558211 49.3036751,35.4329264 L41.4329918,43.3025246 C41.1556166,43.5796827 41,43.9558104 41,44.347999 C41,44.7399705 41.1556166,45.1158811 41.4327747,45.3934733 L50.2286931,54.1891747 C50.5175713,54.4778358 50.8956524,54.6221664 51.2741675,54.6221664 C51.6526826,54.6221664 52.0307636,54.4778358 52.3196418,54.1891747 L55.208858,51.2999585 L58.700139,54.7912394 L55.8109228,57.6802386 C55.2333834,58.2575609 55.2333834,59.1936479 55.8107057,59.7709703 L64.6061901,68.5671057 C64.8833482,68.8444809 65.2594759,69.0000975 65.6516644,69.0000975 C66.0438529,69.0000975 66.4195465,68.8444809 66.6969217,68.5671057 L74.566954,60.6972905 C75.1442763,60.1197511 75.1442763,59.1838812 74.566954,58.6065588 L74.566954,58.6065588 Z" id="Fill-1"></path>
                </g>
            </g>
        </g>
    </g>
</svg>