<?xml version="1.0" encoding="UTF-8"?>
<svg width="38px" height="34px" viewBox="0 0 38 34" version="1.1" xmlns="http://www.w3.org/2000/svg" xmlns:xlink="http://www.w3.org/1999/xlink">
    <!-- Generator: Sketch 46.2 (44496) - http://www.bohemiancoding.com/sketch -->
    <title>Page 1</title>
    <desc>Created with Sketch.</desc>
    <defs></defs>
    <g id="Page-1" stroke="none" stroke-width="1" fill="none" fill-rule="evenodd">
        <g id="5-WebEditor" transform="translate(-207.000000, -754.000000)" fill="#FFFFFF">
            <g id="Menu" transform="translate(0.000000, -1.000000)">
                <g id="List" transform="translate(168.000000, 720.000000)">
                    <path d="M41.9791482,62.8182749 C40.3337337,62.8182749 39,64.2019184 39,65.9091375 C39,67.6161005 40.3337337,69 41.9791482,69 C43.6245628,69 44.9582965,67.6161005 44.9582965,65.9091375 C44.9582965,64.2019184 43.6245628,62.8182749 41.9791482,62.8182749 M41.9791482,35 C40.3337337,35 39,36.3838995 39,38.0908625 C39,39.7980816 40.3337337,41.1817251 41.9791482,41.1817251 C43.6245628,41.1817251 44.9582965,39.7980816 44.9582965,38.0908625 C44.9582965,36.3838995 43.6245628,35 41.9791482,35 M41.9791482,49.1298036 C40.3337337,49.1298036 39,50.5139592 39,52.2209222 C39,53.9278852 40.3337337,55.3117847 41.9791482,55.3117847 C43.6245628,55.3117847 44.9582965,53.9278852 44.9582965,52.2209222 C44.9582965,50.5139592 43.6245628,49.1298036 41.9791482,49.1298036 M74.8651235,63.7692898 L51.1911631,63.7692898 C50.0123923,63.7692898 49.0565373,64.7451361 49.0565373,65.9488164 C49.0565373,67.1524967 50.0123923,68.128087 51.1911631,68.128087 L74.8651235,68.128087 C76.044145,68.128087 77,67.1524967 77,65.9488164 C77,64.7451361 76.044145,63.7692898 74.8651235,63.7692898 M74.8651235,49.8207294 L51.1911631,49.8207294 C50.0123923,49.8207294 49.0565373,50.7963197 49.0565373,52 C49.0565373,53.2034243 50.0123923,54.1795266 51.1911631,54.1795266 L74.8651235,54.1795266 C76.044145,54.1795266 77,53.2034243 77,52 C77,50.7963197 76.044145,49.8207294 74.8651235,49.8207294 M49.0565373,38.0514396 C49.0565373,36.8477593 50.0123923,35.871913 51.1911631,35.871913 L74.8651235,35.871913 C76.044145,35.871913 77,36.8477593 77,38.0514396 C77,39.2548639 76.044145,40.2309661 74.8651235,40.2309661 L51.1911631,40.2309661 C50.0123923,40.2309661 49.0565373,39.2548639 49.0565373,38.0514396" id="Page-1"></path>
                </g>
            </g>
        </g>
    </g>
</svg>