<?xml version="1.0" encoding="UTF-8"?>
<svg width="24px" height="24px" viewBox="0 0 24 24" version="1.1" xmlns="http://www.w3.org/2000/svg" xmlns:xlink="http://www.w3.org/1999/xlink">
    <!-- Generator: Sketch 46.2 (44496) - http://www.bohemiancoding.com/sketch -->
    <title>Search_Icon</title>
    <desc>Created with Sketch.</desc>
    <defs></defs>
    <g id="Page-1" stroke="none" stroke-width="1" fill="none" fill-rule="evenodd">
        <g id="2-WebProjects" transform="translate(-165.000000, -342.000000)" fill-rule="nonzero" fill="#767676">
            <g id="Search" transform="translate(165.000000, 342.000000)">
                <path d="M17.1537046,17.1503744 C17.5477216,16.7563575 18.1865492,16.7563575 18.5805662,17.1503744 L23.7078175,22.2776257 C24.1018344,22.6716427 24.1018344,23.3104703 23.7078175,23.7044873 C23.3138005,24.0985042 22.6749728,24.0985042 22.2809559,23.7044873 L17.1537046,18.577236 C16.7596877,18.1832191 16.7596877,17.5443914 17.1537046,17.1503744 Z M9.58496326,17.1699265 C13.7740228,17.1699265 17.1699265,13.7740228 17.1699265,9.58496326 C17.1699265,5.39590372 13.7740228,2 9.58496326,2 C5.39590372,2 2,5.39590372 2,9.58496326 C2,13.7740228 5.39590372,17.1699265 9.58496326,17.1699265 Z M9.58496326,19.1699265 C4.29133422,19.1699265 0,14.8785923 0,9.58496326 C0,4.29133422 4.29133422,0 9.58496326,0 C14.8785923,0 19.1699265,4.29133422 19.1699265,9.58496326 C19.1699265,14.8785923 14.8785923,19.1699265 9.58496326,19.1699265 Z" id="Search_Icon"></path>
            </g>
        </g>
    </g>
</svg>