<?xml version="1.0" encoding="UTF-8"?>
<svg width="34px" height="34px" viewBox="0 0 34 34" version="1.1" xmlns="http://www.w3.org/2000/svg" xmlns:xlink="http://www.w3.org/1999/xlink">
    <!-- Generator: Sketch 46.2 (44496) - http://www.bohemiancoding.com/sketch -->
    <title>Sphere</title>
    <desc>Created with Sketch.</desc>
    <defs></defs>
    <g id="Page-1" stroke="none" stroke-width="1" fill="none" fill-rule="evenodd">
        <g id="5-WebEditor" transform="translate(-209.000000, -370.000000)" fill="#FFFFFF">
            <g id="Menu" transform="translate(0.000000, -1.000000)">
                <g id="Sphere" transform="translate(168.000000, 336.000000)">
                    <path d="M57.0251318,37.6879201 L57.3372767,37.4297821 L57.3372767,37.6879201 L57.0251318,37.6879201 Z M72.5159402,51.1232045 C72.3926614,48.9704049 71.9422885,46.9236188 71.1742962,45.0266412 C71.2615705,45.0082178 71.3317899,44.9981112 71.3612673,45.0054806 C71.4259071,45.0504336 71.5698201,45.352472 71.6390921,45.4976483 C72.4986749,47.3001929 72.9709454,49.1448481 73.0780116,51.1232045 L72.5159402,51.1232045 Z M64.0207566,64.1170644 C64.4693399,63.2427429 64.8929726,62.4169539 65.319132,61.5688462 C65.3986157,61.4107209 65.4527279,61.2433312 65.504945,61.0815212 C65.5505298,60.9403454 65.6354879,60.6774699 65.698338,60.6366226 C65.7821381,60.5825105 66.0709116,60.6103035 66.2619885,60.6288321 C66.4036907,60.6425181 66.5502356,60.6566251 66.6959383,60.6566251 L66.6989913,60.6566251 C67.2008445,60.6559935 67.7026977,60.6560988 68.2045509,60.6563093 L68.2564522,60.6563093 C68.0975899,60.9253961 67.9447284,61.1787967 67.7598628,61.3929291 C67.102411,62.1549206 66.4092703,62.9122799 65.7389747,63.6447939 C65.5032606,63.902195 65.267757,64.1595961 65.0329904,64.4178394 C64.8553889,64.6132326 64.6750502,64.6683975 64.3888033,64.6138643 C64.1896202,64.57607 63.9926478,64.5590152 63.7991496,64.5491192 C63.8732642,64.4046799 63.9470631,64.2607668 64.0207566,64.1170644 L64.0207566,64.1170644 Z M59.5490311,60.5829316 L63.6886092,60.5829316 C63.6568157,60.6533616 63.625338,60.7231599 63.5941762,60.7923266 C63.3395123,61.3587143 63.0987449,61.893519 62.8158668,62.3942141 C62.520882,62.9165962 62.1688373,63.4290823 61.8283731,63.9247242 C61.7173063,64.0864289 61.6063449,64.2481337 61.496752,64.4105753 L61.495594,64.4105753 C60.7893991,64.3936258 60.0832042,64.3767816 59.3775357,64.3593057 L59.5490311,60.5829316 Z M65.2478598,53.0161816 C65.2445962,53.0950337 65.2415432,53.1733595 65.2385954,53.2507377 C65.2194351,53.740063 65.2013275,54.2022269 65.1272129,54.6532315 C64.9011842,56.0293009 64.6054624,57.4240043 64.3454294,58.6251041 C64.3312171,58.6497388 64.2977392,58.6865856 64.2703673,58.7089042 C62.9512525,58.7298543 61.603713,58.7280646 60.2996527,58.7265907 C60.0805723,58.7263801 59.8610707,58.7260643 59.6413586,58.7258537 L59.6413586,53.0161816 L65.2478598,53.0161816 Z M66.6886742,58.8692404 C66.5550783,58.869872 66.4212719,58.8705037 66.2871496,58.8710301 C66.3274705,58.6695308 66.3675808,58.4720321 66.4070595,58.2777969 C66.565606,57.497382 66.7153092,56.7602358 66.8285867,56.0163519 C66.9770266,55.0419124 67.0593529,54.0485232 67.1387314,53.0878749 L67.1448374,53.0151289 C67.1455743,53.0064962 67.1463113,52.9984952 67.1470482,52.9911258 C68.0852726,52.987757 69.0243391,52.9883886 70.0087799,52.9887044 L70.6446501,52.988915 C70.6329644,53.1141941 70.6220156,53.2376834 70.6113827,53.3592778 C70.5613763,53.9288238 70.5141072,54.4666815 70.3890387,54.970535 C70.1758537,55.8296966 69.9019242,56.6959119 69.6371538,57.5337024 C69.510085,57.9355429 69.3786999,58.3510693 69.255,58.7628058 C69.2214168,58.8743989 69.2171004,58.8887165 69.0069685,58.8829263 C68.5350139,58.8699773 68.0574796,58.8662926 67.5837352,58.8662926 C67.2830655,58.8662926 66.9838696,58.8677665 66.6886742,58.8692404 L66.6886742,58.8692404 Z M67.228427,51.1293105 L66.3552635,45.2553018 L66.5986628,45.2461427 C67.4379272,45.2144545 68.305511,45.1816082 69.1739371,45.1632901 C69.1783587,45.1661325 69.1827803,45.1693961 69.1867808,45.1724491 C70.0462583,47.0580569 70.5305303,49.061048 70.6277005,51.1293105 L67.228427,51.1293105 Z M65.0739429,51.1678417 C64.6434673,51.1678417 64.2292041,51.1675259 63.8148358,51.1682628 C62.5225665,51.1706842 61.2299813,51.1736319 59.937712,51.1776325 C59.8050636,51.1776325 59.7251587,51.1733161 59.6789423,51.167947 C59.6733627,51.1218359 59.6682041,51.0444577 59.6670461,50.9143359 C59.6551498,49.7266062 59.6372528,48.5196108 59.6197769,47.3523048 C59.6114601,46.8025508 59.6033538,46.2527968 59.5957739,45.7031481 C59.5941947,45.5917655 59.5940895,45.4802777 59.5944053,45.3564725 L64.3141623,45.3564725 C64.865706,47.1755455 65.1724818,49.0841036 65.2482809,51.1678417 L65.0739429,51.1678417 Z M68.2116044,43.3182138 L65.724973,43.3182138 L63.7277721,39.4289832 C64.0463388,39.4077174 64.3719591,39.3877148 64.7004219,39.3758186 C64.7166344,39.3857146 64.7435852,39.4042433 64.7864328,39.438774 C66.1467107,40.53565 67.2974884,41.8393945 68.2116044,43.3182138 L68.2116044,43.3182138 Z M61.4049509,39.5467877 C62.3063285,40.6728253 63.0396847,41.9493032 63.6368132,43.4343338 L59.5518736,43.4343338 L59.3701663,39.5407869 L59.5089208,39.5406816 C60.1618457,39.5397341 60.7792925,39.5391025 61.4049509,39.5467877 L61.4049509,39.5467877 Z M53.3471913,60.582721 L57.6687924,60.582721 L57.4987709,64.4397369 C57.4110755,64.4398422 57.3239066,64.4400528 57.2371587,64.440158 C56.5621257,64.4415266 55.9237288,64.4424741 55.2904906,64.4324729 C55.2824895,64.4313148 55.2682772,64.4261563 55.2577496,64.4209977 C54.4819669,63.3120148 53.854203,62.0516443 53.3471913,60.582721 L53.3471913,60.582721 Z M43.5612122,53.0369211 C43.6659624,55.0850758 44.1063341,57.0455352 44.9014876,59.0016782 C44.7998958,59.0097845 44.7045152,59.0141009 44.6133458,59.0110478 C44.6040814,59.0075737 44.5915535,59.0009413 44.5821839,58.9946247 C43.561107,57.0140575 43.0152482,55.0617044 42.9175516,53.0369211 L43.5612122,53.0369211 Z M45.7189598,43.1926189 C45.9998376,42.8005691 46.2927168,42.4297852 46.5985451,42.0787933 C46.4573693,42.2817664 46.3334589,42.4935828 46.2383942,42.7223487 C46.1239586,42.9975415 45.9969951,43.1615623 45.7189598,43.1926189 L45.7189598,43.1926189 Z M53.3722471,43.453073 C53.9810612,42.1791218 54.5959813,40.9070656 55.1752128,39.7099663 C55.2286932,39.5996365 55.2648031,39.5469982 55.4902001,39.5574206 C56.0412174,39.5832133 56.5865498,39.5783706 57.1636757,39.5732121 C57.273058,39.5722646 57.3835984,39.5713171 57.495402,39.5704749 L57.6732141,43.453073 L53.3722471,43.453073 Z M48.1156851,60.7210544 C49.2443547,60.6842076 50.3112269,60.6493611 51.3828366,60.6274635 C51.3854686,60.6289374 51.3879952,60.6306218 51.3905218,60.632201 C51.8989022,61.8100347 52.4065455,63.018925 52.8977658,64.1884419 L53.0453635,64.5396444 C52.5362462,64.5781756 52.0118639,64.6173384 51.478533,64.6497636 C51.4696898,64.6451314 51.4581094,64.6380779 51.4466342,64.6290241 C50.0347708,63.514251 48.8746235,62.2330358 47.9162914,60.7274762 L48.1156851,60.7210544 Z M52.0267078,50.1743472 C52.1716736,48.9966188 52.3088489,47.8840565 52.463816,46.7631774 C52.5322457,46.2682724 52.6698421,45.766314 52.7961739,45.3304692 C52.799227,45.3275215 52.8028064,45.3245737 52.8063858,45.3217312 C54.2126695,45.3081506 55.6026354,45.3089928 57.0726115,45.3097297 L57.7099556,45.3100455 L57.7099556,51.1193093 L51.9098509,51.1193093 C51.9494349,50.8009531 51.9881766,50.4861763 52.0267078,50.1743472 L52.0267078,50.1743472 Z M54.5602926,58.6638459 C54.3324742,58.6646881 54.1045505,58.6695308 53.8767322,58.6744788 C53.5233189,58.6820587 53.1583252,58.6900597 52.8039644,58.6811112 C52.7943842,58.6775318 52.7818563,58.67111 52.7715392,58.6645828 C52.4209684,57.7686796 51.9871239,54.4314139 52.0096531,52.990073 L52.1925184,52.990073 L53.3858277,52.990073 L54.2219339,52.990073 C55.3942932,52.9897572 56.6048679,52.9893361 57.7974404,53.0017587 C57.7884919,54.6811298 57.7671207,56.3337606 57.7444863,58.0805087 L57.7370116,58.6622667 L57.0579781,58.6619509 C56.2071332,58.6613192 55.3837656,58.6605823 54.5602926,58.6638459 L54.5602926,58.6638459 Z M50.0218218,53.0127075 L50.7887612,58.7634375 L50.4165035,58.7760706 C49.2939399,58.8141807 48.1333715,58.8535542 46.999754,58.8710301 C46.9720662,58.8685034 46.916375,58.8449215 46.8865817,58.8243926 C45.999627,56.905728 45.5155656,54.9514799 45.4469253,53.0127075 L50.0218218,53.0127075 Z M50.7641265,45.2744621 L50.0145577,51.1357324 L45.439977,51.1357324 C45.4490308,51.0298242 45.4574529,50.9247583 45.4657698,50.8210609 C45.510407,50.2620426 45.5526229,49.7341861 45.6853766,49.2373862 C45.9290917,48.3260073 46.2386047,47.4088383 46.5380111,46.5217783 C46.6817136,46.0959348 46.830364,45.6554578 46.9706976,45.2189814 C46.987963,45.1650798 47.0024912,45.1444456 47.0019648,45.1428664 C47.0098605,45.1397081 47.0521817,45.1262327 47.1788293,45.1329704 C48.1833779,45.1864509 49.1925586,45.2207711 50.1683667,45.2540384 C50.367971,45.2608814 50.5665225,45.2676191 50.7641265,45.2744621 L50.7641265,45.2744621 Z M53.1476922,39.4600398 C53.0131489,39.7531297 52.8777632,40.0456931 52.7422724,40.3383618 C52.303164,41.2873244 51.8493169,42.2685016 51.4311586,43.2491524 C51.3872583,43.3520075 51.3607286,43.3895912 51.3508326,43.4014875 C51.3390416,43.4041194 51.3078798,43.4086463 51.2437664,43.4059091 C50.3233337,43.3652724 49.4029011,43.3380058 48.4283564,43.30916 C48.3080253,43.3055806 48.186852,43.3020012 48.0647313,43.2983165 C48.0716795,43.28821 48.0788383,43.2781034 48.0858918,43.2678916 C48.3947731,42.8234141 48.6867049,42.4036766 49.0155888,42.0437362 C49.5248113,41.4864023 50.0836191,40.9480182 50.6240035,40.4273205 C50.8854051,40.1756043 51.1555446,39.9153608 51.4185254,39.6545908 C51.6621353,39.4129812 51.9103773,39.3309708 52.2474727,39.3785558 C52.5463528,39.4210875 52.8406006,39.4414059 53.1476922,39.4600398 L53.1476922,39.4600398 Z M44.9976051,45.0344316 C44.1634992,47.0086822 43.6924921,49.0037776 43.56416,51.1048864 L42.9079714,51.1048864 C42.9418705,49.9491607 43.1449489,48.7990147 43.5134167,47.6802411 C43.6695418,47.206181 43.8655667,46.7284361 44.0551697,46.2663775 C44.1906605,45.9362303 44.3306783,45.5948185 44.4579576,45.2515118 C44.5738671,44.9387353 44.6505084,44.9429463 44.8549554,45.0014801 C44.9029615,45.015166 44.9504412,45.0259042 44.9976051,45.0344316 L44.9976051,45.0344316 Z M46.0397374,61.2629126 C45.9287759,61.1192102 45.8194989,60.9726653 45.711801,60.8230673 C45.7163279,60.8239095 45.7204337,60.8249623 45.7240131,60.8263309 C45.7964433,60.8521236 45.9680441,61.1418446 46.0325786,61.2508058 C46.0348946,61.2548063 46.037316,61.2589121 46.0397374,61.2629126 L46.0397374,61.2629126 Z M73.0986458,53.0447116 C73.0753797,53.2062057 73.0531663,53.3663313 73.0313741,53.523825 C72.931993,54.240337 72.8379811,54.9169492 72.67196,55.5774541 C72.4352984,56.5179945 72.1079937,57.4563242 71.6990997,58.3662291 C71.6261431,58.528355 71.5711887,58.6627931 71.5270779,58.7708068 C71.4948632,58.8493431 71.4595956,58.9356699 71.4338029,58.989045 C71.3727425,58.987887 71.2857841,58.9835707 71.1879822,58.9762013 C71.9502895,57.0577473 72.3838182,55.1081314 72.5074128,53.0447116 L73.0986458,53.0447116 Z M59.4915501,37.6838144 L59.2768913,37.6838144 L59.2768913,37.5232677 L59.4915501,37.6838144 Z M57.3282229,66.284708 L57.3282229,66.5870621 L56.9511224,66.284708 L57.3282229,66.284708 Z M59.2450978,66.610223 L59.2615209,66.3047105 L59.6442011,66.3047105 L59.2450978,66.610223 Z M58.0315753,35.0003158 C57.9953602,35.0001053 57.959882,35 57.9237722,35 C53.4429929,35 49.222036,36.7502222 46.0288939,39.9350475 C42.8110117,43.1445075 41.0252061,47.4233664 41.0002556,51.9833137 C40.949407,61.2874421 48.492575,68.9207268 57.8152321,68.9993683 C57.8653437,68.9997894 57.9151395,69 57.9652511,69 C62.4986687,68.9998947 66.7478396,67.2644113 69.9442454,64.103589 C73.18971,60.8942343 74.984043,56.5807394 74.9967814,51.9578368 C75.0224689,42.666131 67.4118187,35.0589549 58.0315753,35.0003158 L58.0315753,35.0003158 Z"></path>
                </g>
            </g>
        </g>
    </g>
</svg>